Simulation
nRows=23
nColumns=15
endheader
time  TH_x TH_y TH_z SC_y  SC_z  SC_x  AC_y  AC_z  AC_x  GH_y  GH_z  GH_yy  EL_x  PS_y
0.0  0.000000  0.000000  0.000000  -36.95552698708296  0.7113732861679737  0.08334761329707464  46.336764609587455  3.9364806066008806  -0.20314467578797693  39.45021404456071  5.482412122795595  -23.519780744261958  21.42408258481088  120.000000
0.03200000000000003  0.000000  0.000000  0.000000  -37.0845769039049  0.9753381545166723  0.2417699967869046  45.81304641461779  4.2756579680615125  -0.498762093807409  39.61280299376296  5.245785322047205  -24.163664193598688  21.32670860437978  120.000000
0.06400000000000006  0.000000  0.000000  0.000000  -37.13575872742326  1.1369985106246223  0.39274920359623317  45.40214329876874  4.473153735754892  -0.750252527726184  39.84894654613462  5.0034843422021895  -24.75845433531108  21.100627566470706  120.000000
0.09600000000000009  0.000000  0.000000  0.000000  -37.1191457134452  1.2298859062369594  0.5332288396435418  45.11276762547256  4.545684566824555  -0.981070272703373  40.15674901435023  4.777352929095387  -25.32097645299742  20.854377411147546  120.000000
0.1280000000000001  0.000000  0.000000  0.000000  -37.08176258672019  1.2671567161097876  0.6649304626683397  44.933325913768364  4.514881743127377  -1.1831099401145864  40.518079966135396  4.603261845852751  -25.8899097840651  20.6433468725005  120.000000
0.16000000000000014  0.000000  0.000000  0.000000  -37.05260106203663  1.2527401085496765  0.7927121750195257  44.856247721234915  4.4064479683352875  -1.345817174495126  40.919835013060585  4.517128087907643  -26.500088691855456  20.490748418382726  120.000000
0.19200000000000017  0.000000  0.000000  0.000000  -37.03910647260112  1.1973355071553284  0.9186971691589457  44.880525852098366  4.246061498612043  -1.4619024022192006  41.36554149505299  4.543735775244304  -27.169106820153647  20.410402082180973  120.000000
0.2240000000000002  0.000000  0.000000  0.000000  -37.0348560223523  1.1120344191250147  1.0429043456603582  44.99977360548572  4.059265433956619  -1.5259195229251081  41.870230232726314  4.693376399996121  -27.902295535090527  20.40511367755005  120.000000
0.2560000000000002  0.000000  0.000000  0.000000  -37.031354300607276  1.0060714757176397  1.163442199011002  45.206887989470296  3.870037943762616  -1.5316399468771962  42.45547283326016  4.970070688536054  -28.69885504943463  20.469903856459073  120.000000
0.28800000000000026  0.000000  0.000000  0.000000  -37.021065844259645  0.8853944585396349  1.2798101095128471  45.495945899122916  3.6977380748333375  -1.474489884347131  43.14296768430291  5.377361817443844  -29.55924222077214  20.591936862078377  120.000000
0.3200000000000003  0.000000  0.000000  0.000000  -37.002763115661764  0.7539920348101662  1.3925774142752567  45.85875369593766  3.557069646823852  -1.351544416879812  43.950952948158935  5.92076059247344  -30.48888653794597  20.753785222466426  120.000000
0.3520000000000003  0.000000  0.000000  0.000000  -36.97706843706964  0.6188114833766242  1.5010002537863765  46.28158209735954  3.4591260257691556  -1.1643872727499691  44.89251265348684  6.605964503918694  -31.49905336539199  20.939440393414415  120.000000
0.38400000000000034  0.000000  0.000000  0.000000  -36.9437183369299  0.4934834410141623  1.600738536612786  46.74412358941664  3.412591157005957  -0.9206192476104151  45.97652191866854  7.436836276702511  -32.604309977706684  21.14074947265754  120.000000
0.41600000000000037  0.000000  0.000000  0.000000  -36.90081773378533  0.3968720276102886  1.683345864243142  47.21964910481113  3.42307745364235  -0.6310116617915789  47.20585694284906  8.415241727061689  -33.82264085500988  21.356038039626924  120.000000
0.4480000000000004  0.000000  0.000000  0.000000  -36.84690840707652  0.3475764252275213  1.7359812062309457  47.685225992612864  3.4898304892524092  -0.3049322951874558  48.57384807959118  9.546483142595397  -35.177582814492226  21.582648961596348  120.000000
0.4800000000000004  0.000000  0.000000  0.000000  -36.78165309181619  0.35522443750299054  1.7443954551428411  48.12483812986398  3.6031099087556586  0.055295976750484324  50.05955825540315  10.839440884845969  -36.69957594295846  21.809362702069908  120.000000
0.5120000000000005  0.000000  0.000000  0.000000  -36.705790460759836  0.41641768958298775  1.6964160865277733  48.530951009988776  3.7453217333729416  0.4551468437967283  51.62705378554653  12.301957365695554  -38.420636991032495  22.01516298822589  120.000000
0.5440000000000005  0.000000  0.000000  0.000000  -36.61888069116742  0.5188065057167411  1.5866632357298  48.90244282218369  3.8978429372670367  0.9033094571661057  53.230055713105166  13.931161791119077  -40.360739077645036  22.17693452284086  120.000000
0.5760000000000005  0.000000  0.000000  0.000000  -36.52016994623076  0.6494498124182903  1.422273885420393  49.24109940716318  4.049926472194645  1.4069251231853588  54.82220450125365  15.705570097000956  -42.509351310367485  22.281722471135502  120.000000
0.6080000000000005  0.000000  0.000000  0.000000  -36.40789621918551  0.8046001384202206  1.2233038464964037  49.556127548371606  4.2069913536764405  1.9646566168999948  56.36633097327795  17.58849676842026  -44.81429541441112  22.335993730672733  120.000000
0.6400000000000006  0.000000  0.000000  0.000000  -36.2837467482402  0.9940312387813773  1.0193695748893488  49.86393990499213  4.391505755001096  2.5667772355744884  57.838782751590536  19.536993260122166  -47.185525257092245  22.36306802308166  120.000000
0.6720000000000006  0.000000  0.000000  0.000000  -36.15893650798172  1.2359479418820538  0.8444424242561975  50.178513130381724  4.635311752503405  3.200154301464323  59.22644809502002  21.510442225998094  -49.515775782097485  22.390522627856278  120.000000
0.7040000000000006  0.000000  0.000000  0.000000  -36.0563094956485  1.5473578743714147  0.7282820235705463  50.50692599483098  4.965533307732349  3.8532474484200216  60.52044360274807  23.481131493581724  -51.7112689883628  22.43533121434755  120.000000
